<svg xmlns="http://www.w3.org/2000/svg" viewBox="0 0 32 32">
  <path fill="#fff" d="M13.5 4c3.5 2.3 4.4 4.2 2.4 6.5-1.8 2.1-1.2 3.4 1.4 5.4-4.1-1.4-5.6-3.7-3.3-6.5 1.7-2 1.3-3.4-.5-5.4ZM20 3c2.9 3 2.3 5.1-.4 7.5-2.3 2-2.1 3.2.4 5.2-3.8-1.2-5.5-3.7-2.4-6.5 2.1-1.9 2.5-3.5 2.4-6.2ZM7 18h17c0 5.5-3.6 9-8.5 9S7.2 23.5 7 18Zm2.7 2c.8 3.2 3 5 5.8 5s5-1.8 5.8-5H9.7Zm15.8-2.7c2.3.3 3.5 1 3.5 2.1 0 1.7-2.7 3-6.8 3.5l.6-1.4c2.4-.4 3.8-1 3.8-1.7 0-.4-.6-.8-1.8-1.1l.7-1.4ZM4.8 17.3l.7 1.4c-1.2.3-1.8.7-1.8 1.1 0 .7 1.4 1.3 3.8 1.7l.6 1.4C4 22.4 1.3 21.1 1.3 19.4c0-1.1 1.2-1.8 3.5-2.1Z"/>
</svg>
